<svg width="211" height="228" viewBox="0 0 211 228" fill="none" xmlns="http://www.w3.org/2000/svg">
<g clip-path="url(#clip0_167_106)">
<g filter="url(#filter0_d_167_106)">
<path d="M0.0634766 106.069C0.0634766 48.015 47.1243 0.954102 105.178 0.954102C163.233 0.954102 210.294 48.015 210.294 106.069C210.294 164.123 163.233 211.184 105.178 211.184C47.1243 211.184 0.0634766 164.123 0.0634766 106.069Z" fill="#333333"/>
</g>
<path d="M84.1558 169.138C89.7315 169.138 95.0787 166.923 99.0213 162.98C102.964 159.038 105.179 153.69 105.179 148.115V127.092H84.1558C78.5802 127.092 73.2329 129.307 69.2903 133.249C65.3477 137.192 63.1328 142.539 63.1328 148.115C63.1328 153.69 65.3477 159.038 69.2903 162.98C73.2329 166.923 78.5802 169.138 84.1558 169.138Z" fill="#0ACF83"/>
<path d="M63.1328 106.07C63.1328 100.495 65.3477 95.1474 69.2903 91.2049C73.2329 87.2623 78.5802 85.0474 84.1558 85.0474H105.179V127.093H84.1558C81.395 127.093 78.6613 126.55 76.1107 125.493C73.56 124.437 71.2425 122.888 69.2903 120.936C67.3381 118.984 65.7896 116.666 64.7331 114.116C63.6766 111.565 63.1328 108.831 63.1328 106.07Z" fill="#A259FF"/>
<path d="M63.1328 64.0245C63.1328 58.4488 65.3477 53.1015 69.2903 49.159C73.2329 45.2164 78.5802 43.0015 84.1558 43.0015H105.179V85.0475H84.1558C78.5802 85.0475 73.2329 82.8326 69.2903 78.89C65.3477 74.9474 63.1328 69.6001 63.1328 64.0245Z" fill="#F24E1E"/>
<path d="M105.18 43.0015H126.203C131.778 43.0015 137.126 45.2164 141.068 49.159C145.011 53.1015 147.226 58.4488 147.226 64.0245C147.226 69.6001 145.011 74.9474 141.068 78.89C137.126 82.8326 131.778 85.0475 126.203 85.0475H105.18V43.0015Z" fill="#FF7262"/>
<path d="M147.226 106.07C147.226 111.646 145.011 116.993 141.068 120.936C137.126 124.878 131.778 127.093 126.203 127.093C120.627 127.093 115.28 124.878 111.337 120.936C107.395 116.993 105.18 111.646 105.18 106.07C105.18 100.495 107.395 95.1474 111.337 91.2049C115.28 87.2623 120.627 85.0474 126.203 85.0474C131.778 85.0474 137.126 87.2623 141.068 91.2049C145.011 95.1474 147.226 100.495 147.226 106.07Z" fill="#1ABCFE"/>
</g>
<defs>
<filter id="filter0_d_167_106" x="-5.86619" y="-2.99901" width="229.995" height="229.996" filterUnits="userSpaceOnUse" color-interpolation-filters="sRGB">
<feFlood flood-opacity="0" result="BackgroundImageFix"/>
<feColorMatrix in="SourceAlpha" type="matrix" values="0 0 0 0 0 0 0 0 0 0 0 0 0 0 0 0 0 0 127 0" result="hardAlpha"/>
<feOffset dx="3.95311" dy="5.92967"/>
<feGaussianBlur stdDeviation="4.94139"/>
<feComposite in2="hardAlpha" operator="out"/>
<feColorMatrix type="matrix" values="0 0 0 0 0 0 0 0 0 0 0 0 0 0 0 0 0 0 0.25 0"/>
<feBlend mode="normal" in2="BackgroundImageFix" result="effect1_dropShadow_167_106"/>
<feBlend mode="normal" in="SourceGraphic" in2="effect1_dropShadow_167_106" result="shape"/>
</filter>
<clipPath id="clip0_167_106">
<rect width="209.515" height="227.304" fill="white" transform="translate(0.959961 0.6875)"/>
</clipPath>
</defs>
</svg>
