<svg width="105" height="117" viewBox="0 0 105 117" fill="none" xmlns="http://www.w3.org/2000/svg">
<g id="Group">
<path id="Vector" d="M52.3999 116.706L9.5491 105.103L0 0.635742H104.928L95.3689 105.087L52.3999 116.706Z" fill="#264DE4"/>
<path id="Vector_2" d="M87.185 98.436L95.354 9.17773H52.4639V107.825L87.185 98.436Z" fill="#2965F1"/>
<path id="Vector_3" d="M21.8906 47.9229L23.068 60.7352H52.4636V47.9229H21.8906Z" fill="#EBEBEB"/>
<path id="Vector_4" d="M19.5254 21.9902L20.7195 34.8029H52.464V21.9902H19.5254Z" fill="#EBEBEB"/>
<path id="Vector_5" d="M52.464 81.1983L52.4064 81.2132L37.7769 77.3602L36.8417 67.1416H23.6553L25.4956 87.2591L52.4035 94.545L52.464 94.5286V81.1983Z" fill="#EBEBEB"/>
<path id="Vector_6" d="M82.9532 47.9231L85.3246 21.9902H52.4189V34.8029H70.9288L69.7335 47.9231H52.4189V60.7355H68.5944L67.0696 77.3523L52.4189 81.2093V94.5391L79.3483 87.2594L79.5458 85.0948L82.6326 51.3636L82.9532 47.9231Z" fill="white"/>
</g>
</svg>
