<svg width="128" height="114" viewBox="0 0 128 114" fill="none" xmlns="http://www.w3.org/2000/svg">
<g id="Group">
<path id="Vector" fill-rule="evenodd" clip-rule="evenodd" d="M19.2579 92.9886V84.8739C19.2579 83.8083 19.9314 82.9512 21.0462 82.9512H21.3552C22.4698 82.9512 23.14 83.8088 23.14 84.8739V101.958C23.14 106.124 21.0606 109.438 17.438 111.55C15.7582 112.528 13.9021 113.03 11.9547 113.03H11.185C6.97586 113.03 3.63147 110.971 1.49498 107.386C0.503603 105.722 0 103.887 0 101.958V101.196C0 97.0287 2.08042 93.7161 5.70035 91.6006C7.38153 90.6181 9.23496 90.1201 11.185 90.1201H11.9547C14.8033 90.1201 17.2202 91.213 19.2579 92.9886ZM3.88153 101.576C3.88153 104.585 5.35504 106.848 8.01875 108.291C9.09571 108.874 10.2652 109.188 11.4941 109.188C14.4779 109.188 16.6908 107.794 18.2174 105.291C18.9274 104.126 19.2579 102.853 19.2579 101.498C19.2579 98.8895 18.0103 96.8539 15.887 95.3418C14.5994 94.4253 13.15 93.9655 11.5695 93.9655C8.31737 93.9655 5.97697 95.5918 4.57214 98.4813C4.09805 99.4582 3.88153 100.496 3.88153 101.576ZM36.6071 90.1201H37.1451C41.6429 90.1201 45.0632 92.28 47.2311 96.1666C48.098 97.7214 48.5616 99.4181 48.5616 101.196V101.958C48.5616 106.123 46.4866 109.443 42.8581 111.55C41.1782 112.526 39.3226 113.03 37.3758 113.03H36.6071C32.398 113.03 29.0531 110.971 26.9171 107.386C25.9258 105.722 25.4211 103.887 25.4211 101.958V101.196C25.4211 97.0282 27.5093 93.7264 31.1204 91.6016C32.7994 90.6138 34.6561 90.1201 36.6071 90.1201ZM29.3026 101.576C29.3026 104.497 30.7509 106.646 33.2432 108.157C34.4135 108.866 35.7022 109.188 37.0697 109.188C39.9853 109.188 42.1403 107.724 43.6404 105.288C44.3557 104.126 44.6793 102.851 44.6793 101.498C44.6793 98.7822 43.3576 96.7071 41.0985 95.2032C39.8603 94.3785 38.482 93.9655 36.9911 93.9655C33.739 93.9655 31.3986 95.5918 29.9943 98.4813C29.5191 99.4582 29.3026 100.496 29.3026 101.576ZM64.6997 94.2725C64.1138 94.0008 63.0164 93.9105 62.3829 93.8866C59.1397 93.7658 56.7931 95.5737 55.4165 98.4061C54.9413 99.383 54.7243 100.417 54.7243 101.498C54.7243 104.79 56.4698 107.094 59.4378 108.499C60.522 109.012 61.9217 109.11 63.1065 109.11C64.1489 109.11 65.6214 108.477 66.5462 108.042L66.7066 107.967H67.4241L67.5032 107.983C68.3862 108.165 69.0527 108.719 69.0527 109.659V110.04C69.0527 112.379 64.7333 112.915 63.0851 113.029C57.2688 113.428 52.9188 110.265 51.2605 104.773C50.9723 103.82 50.8427 102.873 50.8427 101.879V101.118C50.8427 96.9509 52.9315 93.6502 56.542 91.5267C58.221 90.5397 60.0777 90.0441 62.0282 90.0441H62.7975C64.8663 90.0441 66.7721 90.6258 68.4804 91.7809L68.621 91.8771L68.7095 92.0218C68.8938 92.3246 69.0527 92.6744 69.0527 93.0348V93.4152C69.0527 94.396 68.3113 94.9235 67.4163 95.0943L67.3422 95.1073H67.1128C66.5333 95.1073 65.2168 94.5134 64.6997 94.2725ZM77.2909 96.8746C78.7985 95.3801 80.312 93.8882 81.8421 92.4181C82.2687 92.0083 83.8833 90.2725 84.5189 90.2725H85.2144L85.2935 90.2885C86.1789 90.4707 86.8424 91.0258 86.8424 91.9679V92.348C86.8424 92.9907 86.0821 93.7373 85.6627 94.1772C84.7709 95.1129 83.8318 96.0183 82.9191 96.9349L78.2294 101.648C80.2486 103.651 82.266 105.657 84.2689 107.676C84.8229 108.234 85.3773 108.793 85.9227 109.36C86.1156 109.56 86.4003 109.81 86.5621 110.089C86.7357 110.35 86.8424 110.644 86.8424 110.957V111.355L86.8199 111.446C86.6018 112.323 86.0397 113.03 85.0582 113.03H84.7494C84.1071 113.03 83.3819 112.311 82.9416 111.9C82.0355 111.054 81.1598 110.164 80.2712 109.3L77.2909 106.404V111.033C77.2909 112.099 76.6166 112.956 75.5029 112.956H75.1971C74.0823 112.956 73.4091 112.099 73.4091 111.033V84.9485C73.4091 83.8818 74.0828 83.029 75.1971 83.029H75.5029C76.6166 83.029 77.2909 83.8818 77.2909 84.9485V96.8746ZM125.673 90.2725H126.059C127.223 90.2725 128 91.0492 128 92.195C128 93.7859 126.464 94.1931 125.134 94.1931C123.391 94.1931 121.727 95.238 120.525 96.4098C119.026 97.8723 118.37 99.7456 118.37 101.805V111.108C118.37 112.174 117.698 113.03 116.582 113.03H116.275C115.16 113.03 114.487 112.174 114.487 111.108V101.271C114.487 97.493 116.345 94.4096 119.442 92.2468C121.291 90.9546 123.409 90.2725 125.673 90.2725ZM98.0824 108.709C99.495 109.197 101.106 109.128 102.555 108.878C103.296 108.566 105.192 107.747 105.89 107.867L105.999 107.885L106.099 107.934C106.524 108.138 106.931 108.427 107.148 108.856C107.656 109.862 107.412 110.872 106.414 111.443L106.082 111.633C102.4 113.737 98.4833 113.445 94.8129 111.48C93.0579 110.541 91.7153 109.147 90.725 107.448L90.4932 107.05C88.1295 102.998 88.4485 98.7344 91.1143 94.8805C92.0349 93.5485 93.2377 92.5193 94.6441 91.7145L95.1762 91.4106C98.644 89.429 102.361 89.5644 105.922 91.3039C107.837 92.2391 109.389 93.6335 110.458 95.4667L110.65 95.7968C111.427 97.1288 110.421 98.2898 109.382 99.0831C108.177 100.004 106.96 101.111 105.804 102.099C103.229 104.3 100.657 106.506 98.0824 108.709ZM94.7485 106.391C97.6295 103.946 100.511 101.499 103.384 99.0436C104.366 98.2053 105.442 97.3355 106.416 96.4539C105.635 95.4792 104.329 94.7764 103.22 94.3573C100.981 93.5126 98.773 93.7963 96.7197 94.9697C94.0316 96.506 92.887 98.9527 92.9876 101.997C93.0271 103.196 93.3531 104.352 93.9959 105.372C94.2224 105.731 94.4754 106.069 94.7485 106.391Z" fill="#324043"/>
<path id="Vector_2" fill-rule="evenodd" clip-rule="evenodd" d="M71.5005 23.1327H83.1351V34.8066H89.0179C91.7345 34.8066 94.5287 34.3315 97.1014 33.4759C98.3656 33.0551 99.7845 32.4697 101.031 31.7333C99.3891 29.6286 98.5506 26.971 98.3037 24.3513C97.9685 20.7883 98.7007 16.1506 101.158 13.3619L102.381 11.9735L103.838 13.1234C107.507 16.0169 110.593 20.06 111.137 24.6691C115.555 23.3935 120.742 23.6952 124.637 25.9013L126.234 26.8062L125.393 28.4172C122.1 34.7263 115.214 36.6807 108.483 36.3349C98.4097 60.9606 76.4794 72.6192 49.889 72.6192C36.1516 72.6192 23.5477 67.5786 16.3705 55.6154L16.2528 55.4201L15.2072 53.332C12.7811 48.066 11.9753 42.2971 12.522 36.5331L12.686 34.8066H22.6349V23.1327H34.2691V11.7127H57.5388V0.292969H71.5005V23.1327Z" fill="#364548"/>
<path id="Vector_3" fill-rule="evenodd" clip-rule="evenodd" d="M109.102 27.5454C109.882 21.701 105.341 17.1102 102.525 14.9307C99.2799 18.5445 98.7756 28.0159 103.867 32.0035C101.026 34.4345 95.0381 36.6379 88.9076 36.6379H14.2805C13.6843 42.802 14.808 48.4783 17.3738 53.337L18.2229 54.8325C18.7604 55.7112 19.3476 56.5592 19.9823 57.3756C23.0502 57.5653 25.8793 57.631 28.4672 57.5758H28.4683C33.5543 57.4673 37.7039 56.8894 40.849 55.8397C41.3173 55.6828 41.8276 55.9222 41.9896 56.3727C42.1513 56.8232 41.9037 57.3149 41.436 57.4712C41.0179 57.6107 40.5818 57.7413 40.1315 57.8653C40.1309 57.8655 40.1304 57.8656 40.1298 57.8658C37.6534 58.5467 34.9981 59.0051 31.5718 59.2087C31.775 59.2118 31.3599 59.2381 31.3588 59.2384C31.2423 59.2452 31.0956 59.2612 30.9786 59.2675C29.6302 59.3403 28.1746 59.3555 26.6866 59.3555C25.0592 59.3555 23.4563 59.3259 21.6645 59.2384L21.6187 59.2675C27.8367 65.999 37.5591 70.0363 49.7459 70.0363C75.5382 70.0363 97.4155 59.0238 107.103 34.3C113.976 34.9793 120.581 33.2913 123.586 27.6418C118.8 24.9815 112.645 25.8298 109.102 27.5454Z" fill="#1B81A5"/>
<path id="Vector_4" fill-rule="evenodd" clip-rule="evenodd" d="M108.995 27.538C109.776 21.697 105.233 17.1089 102.416 14.9307C99.1692 18.5424 98.6647 28.0082 103.758 31.9935C100.916 34.423 94.9256 36.6252 88.7926 36.6252H18.5558C18.2511 46.0597 21.8897 53.2212 28.3275 57.5507H28.3286C33.4166 57.4423 37.5679 56.8647 40.7144 55.8156C41.1828 55.6589 41.6933 55.8981 41.8554 56.3483C42.0172 56.7986 41.7694 57.29 41.3015 57.4463C40.8832 57.5857 40.447 57.7161 39.9965 57.8401L39.9949 57.8406C37.5174 58.5211 34.6326 59.038 31.2049 59.2415C31.2049 59.2415 31.122 59.1651 31.1209 59.1654C39.9021 63.4996 52.6352 63.4841 67.2335 58.0882C83.6025 52.0375 98.8341 40.5094 109.462 27.3243C109.302 27.3938 109.146 27.4653 108.995 27.538Z" fill="#1D91B4"/>
<path id="Vector_5" fill-rule="evenodd" clip-rule="evenodd" d="M14.124 44.2051C14.5906 47.4969 15.599 50.5792 17.0948 53.387L17.9488 54.878C18.4895 55.754 19.0801 56.5994 19.7187 57.4134C22.805 57.6025 25.6504 57.668 28.2537 57.613C33.3691 57.5048 37.5427 56.9286 40.7061 55.8821C41.1771 55.7257 41.6904 55.9643 41.8533 56.4135C42.016 56.8626 41.7669 57.3529 41.2965 57.5087C40.8759 57.6478 40.4373 57.778 39.9844 57.9016L39.9828 57.9021C37.492 58.5809 34.607 59.0673 31.1608 59.2705C31.0426 59.2773 30.8363 59.2786 30.717 59.2849C29.3613 59.3577 27.9124 59.402 26.4155 59.402C24.7789 59.402 23.1053 59.3721 21.3034 59.2849C27.5572 65.9961 37.3971 70.0359 49.6545 70.0359C71.8633 70.0359 91.1854 61.9877 102.4 44.2051H14.124Z" fill="#1B81A5"/>
<path id="Vector_6" fill-rule="evenodd" clip-rule="evenodd" d="M19.4209 44.2051C20.7311 49.9607 23.8795 54.4793 28.45 57.5567C33.4979 57.449 37.6165 56.8753 40.7382 55.8331C41.203 55.6774 41.7094 55.915 41.8702 56.3623C42.0308 56.8095 41.785 57.2977 41.3207 57.4529C40.9058 57.5914 40.4729 57.721 40.026 57.8441L40.0244 57.8446C37.5664 58.5206 34.6592 59.0049 31.2584 59.2073C39.97 63.5121 52.5662 63.4503 67.0485 58.0906C75.8098 54.8475 84.242 50.0196 91.8071 44.2051H19.4209Z" fill="#1D91B4"/>
<path id="Vector_7" fill-rule="evenodd" clip-rule="evenodd" d="M23.835 25.2627H34.4281V34.734H23.835V25.2627ZM24.7173 26.0521H25.5532V33.9451H24.7173V26.0521ZM26.289 26.0521H27.1584V33.9451H26.289V26.0521ZM27.8936 26.0521H28.7631V33.9451H27.8936V26.0521ZM29.4991 26.0521H30.3685V33.9451H29.4991V26.0521ZM31.1043 26.0521H31.9737V33.9451H31.1043V26.0521ZM32.7092 26.0521H33.5457V33.9451H32.7092V26.0521Z" fill="#BDD9D7"/>
<path id="Vector_8" fill-rule="evenodd" clip-rule="evenodd" d="M36.1934 13.208H45.9037V23.5403H36.1934V13.208ZM37.0031 14.0692H37.7688V22.6794H37.0031V14.0692ZM38.4437 14.0692H39.2401V22.6794H38.4437V14.0692ZM39.9142 14.0692H40.7111V22.6794H39.9142V14.0692ZM41.3855 14.0692H42.1824V22.6794H41.3855V14.0692ZM42.857 14.0692H43.6539V22.6794H42.857V14.0692ZM44.3277 14.0692H45.095V22.6794H44.3277V14.0692Z" fill="#BDD9D7"/>
<path id="Vector_9" fill-rule="evenodd" clip-rule="evenodd" d="M36.1934 25.2627H45.9037V34.734H36.1934V25.2627ZM37.0031 26.0521H37.7688V33.9451H37.0031V26.0521ZM38.4437 26.0521H39.2401V33.9451H38.4437V26.0521ZM39.9142 26.0521H40.7111V33.9451H39.9142V26.0521ZM41.3855 26.0521H42.1824V33.9451H41.3855V26.0521ZM42.857 26.0521H43.6539V33.9451H42.857V26.0521ZM44.3277 26.0521H45.095V33.9451H44.3277V26.0521Z" fill="#BDD9D7"/>
<path id="Vector_10" fill-rule="evenodd" clip-rule="evenodd" d="M47.6689 25.2627H57.3793V34.734H47.6689V25.2627ZM48.4782 26.0521H49.2439V33.9451H48.4782V26.0521ZM49.9186 26.0521H50.7156V33.9451H49.9186V26.0521ZM51.39 26.0521H52.1869V33.9451H51.39V26.0521ZM52.8613 26.0521H53.6583V33.9451H52.8613V26.0521ZM54.3324 26.0521H55.1299V33.9451H54.3324V26.0521ZM55.8038 26.0521H56.57V33.9451H55.8038V26.0521Z" fill="#BDD9D7"/>
<path id="Vector_11" fill-rule="evenodd" clip-rule="evenodd" d="M47.6689 13.208H57.3793V23.5403H47.6689V13.208ZM48.4782 14.0692H49.2439V22.6794H48.4782V14.0692ZM49.9186 14.0692H50.7156V22.6794H49.9186V14.0692ZM51.39 14.0692H52.1869V22.6794H51.39V14.0692ZM52.8613 14.0692H53.6583V22.6794H52.8613V14.0692ZM54.3324 14.0692H55.1299V22.6794H54.3324V14.0692ZM55.8038 14.0692H56.57V22.6794H55.8038V14.0692Z" fill="#BDD9D7"/>
<path id="Vector_12" fill-rule="evenodd" clip-rule="evenodd" d="M59.1445 25.2627H68.8549V34.734H59.1445V25.2627ZM59.9538 26.0521H60.7198V33.9451H59.9538V26.0521ZM61.3945 26.0521H62.1915V33.9451H61.3945V26.0521ZM62.8654 26.0521H63.6624V33.9451H62.8654V26.0521ZM64.337 26.0521H65.134V33.9451H64.337V26.0521ZM65.8084 26.0521H66.6054V33.9451H65.8084V26.0521ZM67.2796 26.0521H68.0461V33.9451H67.2796V26.0521Z" fill="#BDD9D7"/>
<path id="Vector_13" fill-rule="evenodd" clip-rule="evenodd" d="M59.1445 13.208H68.8549V23.5403H59.1445V13.208ZM59.9538 14.0692H60.7198V22.6794H59.9538V14.0692ZM61.3945 14.0692H62.1915V22.6794H61.3945V14.0692ZM62.8654 14.0692H63.6624V22.6794H62.8654V14.0692ZM64.337 14.0692H65.134V22.6794H64.337V14.0692ZM65.8084 14.0692H66.6054V22.6794H65.8084V14.0692ZM67.2796 14.0692H68.0461V22.6794H67.2796V14.0692Z" fill="#BDD9D7"/>
<path id="Vector_14" fill-rule="evenodd" clip-rule="evenodd" d="M59.1445 2.01465H68.8549V12.347H59.1445V2.01465ZM59.9538 2.87521H60.7198V11.4858H59.9538V2.87521ZM61.3945 2.87521H62.1915V11.4858H61.3945V2.87521ZM62.8654 2.87521H63.6624V11.4858H62.8654V2.87521ZM64.337 2.87521H65.134V11.4858H64.337V2.87521ZM65.8084 2.87521H66.6054V11.4858H65.8084V2.87521ZM67.2796 2.87521H68.0461V11.4858H67.2796V2.87521Z" fill="#BDD9D7"/>
<path id="Vector_15" fill-rule="evenodd" clip-rule="evenodd" d="M70.6211 25.2627H81.2142V34.734H70.6211V25.2627ZM71.5034 26.0521H72.3399V33.9451H71.5034V26.0521ZM73.075 26.0521H73.9444V33.9451H73.075V26.0521ZM74.6804 26.0521H75.5498V33.9451H74.6804V26.0521ZM76.2849 26.0521H77.1543V33.9451H76.2849V26.0521ZM77.8906 26.0521H78.7597V33.9451H77.8906V26.0521ZM79.4954 26.0521H80.3313V33.9451H79.4954V26.0521Z" fill="#BDD9D7"/>
<path id="Vector_16" fill-rule="evenodd" clip-rule="evenodd" d="M45.0206 51.0938C46.483 51.0938 47.6686 52.2507 47.6686 53.6771C47.6686 55.1035 46.483 56.2599 45.0206 56.2599C43.5579 56.2599 42.3721 55.1035 42.3721 53.6771C42.3721 52.2507 43.5579 51.0938 45.0206 51.0938Z" fill="#D3ECEC"/>
<path id="Vector_17" fill-rule="evenodd" clip-rule="evenodd" d="M45.4619 51.9541C45.7438 51.9541 46.0128 51.9956 46.2609 52.0707C45.992 52.192 45.8099 52.4193 45.8099 52.6793C45.8099 53.0674 46.2132 53.3816 46.7106 53.3816C47.0514 53.3816 47.3475 53.234 47.5006 53.0159C47.6086 53.2191 47.6687 53.4424 47.6687 53.6765C47.6687 54.6273 46.6808 55.3982 45.4619 55.3982C44.2434 55.3982 43.2549 54.6273 43.2549 53.6765C43.2549 52.7252 44.2434 51.9541 45.4619 51.9541Z" fill="#364548"/>
<path id="Vector_18" fill-rule="evenodd" clip-rule="evenodd" d="M52.9658 69.9783C46.048 66.8569 42.2508 62.6138 40.138 57.9814C37.5686 58.679 34.4795 59.1247 30.8905 59.3162C29.5385 59.3883 28.1164 59.4252 26.6237 59.4252C24.9031 59.4252 23.0899 59.3768 21.1865 59.2808C27.5305 65.3093 35.3352 69.951 49.7859 70.0358C50.8528 70.0358 51.9121 70.016 52.9658 69.9783Z" fill="#BDD9D7"/>
<path id="Vector_19" fill-rule="evenodd" clip-rule="evenodd" d="M42.3723 62.2866C41.4428 61.0425 40.5412 59.4789 39.8785 57.9814C37.3827 58.6842 34.3823 59.1333 30.8965 59.3262C33.2907 60.6078 36.7152 61.7953 42.3723 62.2866Z" fill="#D3ECEC"/>
</g>
</svg>
