<svg width="130" height="126" viewBox="0 0 130 126" fill="none" xmlns="http://www.w3.org/2000/svg">
<g id="figma" clip-path="url(#clip0_41_595)">
<path id="Vector" d="M0 63C0 28.2056 29.101 0 65 0C100.899 0 130 28.2056 130 63C130 97.7944 100.899 126 65 126C29.101 126 0 97.7944 0 63Z" fill="#333333"/>
<path id="Vector_2" d="M52 100.8C55.4478 100.8 58.7544 99.4721 61.1924 97.1092C63.6304 94.7462 65 91.5413 65 88.1996V75.5996H52C48.5522 75.5996 45.2456 76.9271 42.8076 79.2901C40.3696 81.653 39 84.8579 39 88.1996C39 91.5413 40.3696 94.7462 42.8076 97.1092C45.2456 99.4721 48.5522 100.8 52 100.8Z" fill="#0ACF83"/>
<path id="Vector_3" d="M39 63.0004C39 59.6587 40.3696 56.4538 42.8076 54.0908C45.2456 51.7279 48.5522 50.4004 52 50.4004H65V75.6004H52C50.2928 75.6004 48.6023 75.2745 47.0251 74.6413C45.4479 74.0081 44.0148 73.0799 42.8076 71.9099C41.6005 70.7399 40.6429 69.3509 39.9896 67.8222C39.3363 66.2935 39 64.655 39 63.0004Z" fill="#A259FF"/>
<path id="Vector_4" d="M39 37.8002C39 34.4585 40.3696 31.2536 42.8076 28.8906C45.2456 26.5277 48.5522 25.2002 52 25.2002H65V50.4002H52C48.5522 50.4002 45.2456 49.0727 42.8076 46.7097C40.3696 44.3468 39 41.1419 39 37.8002Z" fill="#F24E1E"/>
<path id="Vector_5" d="M65 25.2002H78C81.4478 25.2002 84.7544 26.5277 87.1924 28.8906C89.6304 31.2536 91 34.4585 91 37.8002C91 41.1419 89.6304 44.3468 87.1924 46.7097C84.7544 49.0727 81.4478 50.4002 78 50.4002H65V25.2002Z" fill="#FF7262"/>
<path id="Vector_6" d="M91 63.0004C91 66.3421 89.6304 69.547 87.1924 71.9099C84.7544 74.2729 81.4478 75.6004 78 75.6004C74.5522 75.6004 71.2456 74.2729 68.8076 71.9099C66.3696 69.547 65 66.3421 65 63.0004C65 59.6587 66.3696 56.4538 68.8076 54.0908C71.2456 51.7279 74.5522 50.4004 78 50.4004C81.4478 50.4004 84.7544 51.7279 87.1924 54.0908C89.6304 56.4538 91 59.6587 91 63.0004Z" fill="#1ABCFE"/>
</g>
<defs>
<clipPath id="clip0_41_595">
<rect width="130" height="126" fill="white"/>
</clipPath>
</defs>
</svg>
