<svg width="56" height="54" viewBox="0 0 56 54" fill="none" xmlns="http://www.w3.org/2000/svg">
<g id="figma" clip-path="url(#clip0_16_269)">
<path id="Vector" d="M0 27C0 12.0881 12.5358 0 28 0C43.4642 0 56 12.0881 56 27C56 41.9119 43.4642 54 28 54C12.5358 54 0 41.9119 0 27Z" fill="#333333"/>
<path id="Vector_2" d="M22.4 43.2C23.8853 43.2 25.3096 42.6311 26.3598 41.6184C27.4101 40.6057 28 39.2322 28 37.8V32.4H22.4C20.9148 32.4 19.4905 32.969 18.4403 33.9816C17.39 34.9943 16.8 36.3679 16.8 37.8C16.8 39.2322 17.39 40.6057 18.4403 41.6184C19.4905 42.6311 20.9148 43.2 22.4 43.2Z" fill="#0ACF83"/>
<path id="Vector_3" d="M16.8 27C16.8 25.5678 17.39 24.1943 18.4403 23.1816C19.4905 22.1689 20.9148 21.6 22.4 21.6H28V32.4H22.4C21.6646 32.4 20.9364 32.2603 20.257 31.9889C19.5776 31.7175 18.9603 31.3198 18.4403 30.8183C17.9202 30.3169 17.5077 29.7216 17.2263 29.0665C16.9449 28.4113 16.8 27.7091 16.8 27Z" fill="#A259FF"/>
<path id="Vector_4" d="M16.8 16.2C16.8 14.7678 17.39 13.3943 18.4403 12.3816C19.4905 11.3689 20.9148 10.8 22.4 10.8H28V21.6H22.4C20.9148 21.6 19.4905 21.0311 18.4403 20.0184C17.39 19.0057 16.8 17.6322 16.8 16.2Z" fill="#F24E1E"/>
<path id="Vector_5" d="M28 10.8H33.6C35.0852 10.8 36.5096 11.3689 37.5598 12.3816C38.61 13.3943 39.2 14.7678 39.2 16.2C39.2 17.6322 38.61 19.0057 37.5598 20.0184C36.5096 21.0311 35.0852 21.6 33.6 21.6H28V10.8Z" fill="#FF7262"/>
<path id="Vector_6" d="M39.2 27C39.2 28.4321 38.61 29.8057 37.5598 30.8183C36.5096 31.831 35.0852 32.4 33.6 32.4C32.1148 32.4 30.6904 31.831 29.6402 30.8183C28.59 29.8057 28 28.4321 28 27C28 25.5678 28.59 24.1943 29.6402 23.1816C30.6904 22.1689 32.1148 21.6 33.6 21.6C35.0852 21.6 36.5096 22.1689 37.5598 23.1816C38.61 24.1943 39.2 25.5678 39.2 27Z" fill="#1ABCFE"/>
</g>
<defs>
<clipPath id="clip0_16_269">
<rect width="56" height="54" fill="white"/>
</clipPath>
</defs>
</svg>
