<svg width="128" height="125" viewBox="0 0 128 125" fill="none" xmlns="http://www.w3.org/2000/svg">
<g id="github-seeklogo 1" clip-path="url(#clip0_41_585)">
<g id="Group">
<path id="Vector" d="M64.0005 0C28.6586 0 0 28.6533 0 64.0005C0 92.2776 18.3381 116.268 43.7675 124.73C46.966 125.323 48.1403 123.342 48.1403 121.652C48.1403 120.126 48.0809 115.084 48.0534 109.736C30.2484 113.608 26.4913 102.185 26.4913 102.185C23.58 94.7873 19.3852 92.8203 19.3852 92.8203C13.5784 88.848 19.8229 88.9297 19.8229 88.9297C26.2497 89.3811 29.6337 95.5249 29.6337 95.5249C35.3419 105.309 44.6058 102.481 48.2579 100.845C48.8324 96.7087 50.491 93.8854 52.3213 92.2872C38.1059 90.6688 23.1624 85.1811 23.1624 60.6578C23.1624 53.6704 25.6625 47.9612 29.7566 43.4792C29.0921 41.8672 26.9015 35.3578 30.3766 26.5422C30.3766 26.5422 35.751 24.8221 47.9813 33.1025C53.0865 31.6844 58.5615 30.9733 64.0005 30.9489C69.4395 30.9733 74.9188 31.6844 80.0335 33.1025C92.249 24.8221 97.616 26.5422 97.616 26.5422C101.1 35.3578 98.9079 41.8672 98.2434 43.4792C102.347 47.9612 104.83 53.6704 104.83 60.6578C104.83 85.2394 89.8581 90.6519 75.6066 92.2363C77.9022 94.2224 79.9477 98.1172 79.9477 104.088C79.9477 112.652 79.8735 119.544 79.8735 121.652C79.8735 123.355 81.0255 125.35 84.2696 124.722C109.685 116.25 128 92.2681 128 64.0005C128 28.6533 99.3456 0 64.0005 0ZM23.9703 91.1701C23.8293 91.488 23.3291 91.5834 22.8734 91.3651C22.4092 91.1563 22.1484 90.7229 22.2989 90.4038C22.4367 90.0764 22.938 89.9852 23.4012 90.2046C23.8664 90.4134 24.1314 90.8511 23.9703 91.1701ZM27.1184 93.9791C26.8132 94.2621 26.2165 94.1307 25.8116 93.6834C25.393 93.2372 25.3146 92.6406 25.624 92.3534C25.9388 92.0704 26.5175 92.2029 26.9372 92.649C27.3558 93.1005 27.4374 93.693 27.1184 93.9791ZM29.2781 97.5732C28.886 97.8455 28.2448 97.5901 27.8484 97.021C27.4563 96.4519 27.4563 95.7694 27.8569 95.4959C28.2543 95.2225 28.886 95.4684 29.2877 96.0332C29.6787 96.6119 29.6787 97.2944 29.2781 97.5732ZM32.9307 101.736C32.5799 102.122 31.8327 102.019 31.2858 101.491C30.7262 100.975 30.5705 100.242 30.9223 99.8555C31.2774 99.4676 32.0288 99.5767 32.5799 100.1C33.1352 100.615 33.3048 101.353 32.9307 101.736ZM37.6513 103.141C37.4965 103.642 36.7769 103.87 36.052 103.657C35.3281 103.438 34.8544 102.85 35.0006 102.344C35.1511 101.839 35.8739 101.602 36.6042 101.83C37.327 102.048 37.8018 102.631 37.6513 103.141ZM43.0235 103.737C43.0415 104.265 42.4268 104.702 41.6658 104.712C40.9007 104.729 40.2817 104.302 40.2732 103.782C40.2732 103.249 40.8742 102.816 41.6393 102.803C42.4003 102.788 43.0235 103.212 43.0235 103.737ZM48.3011 103.535C48.3922 104.05 47.8634 104.578 47.1077 104.719C46.3648 104.855 45.677 104.537 45.5826 104.026C45.4904 103.498 46.0288 102.97 46.7707 102.833C47.5274 102.701 48.2046 103.011 48.3011 103.535Z" fill="white"/>
</g>
</g>
<defs>
<clipPath id="clip0_41_585">
<rect width="128" height="125" fill="white"/>
</clipPath>
</defs>
</svg>
