<svg width="16" height="17" viewBox="0 0 16 17" fill="none" xmlns="http://www.w3.org/2000/svg">
<path d="M7.99988 1.57687C4.32657 1.57687 1.33325 4.54317 1.33325 8.18333C1.33325 11.8235 4.32657 14.7898 7.99988 14.7898C11.6732 14.7898 14.6665 11.8235 14.6665 8.18333C14.6665 4.54317 11.6732 1.57687 7.99988 1.57687ZM9.85987 8.53347L7.50655 10.8655C7.40655 10.9646 7.27989 11.0109 7.15322 11.0109C7.02655 11.0109 6.89989 10.9646 6.79989 10.8655C6.60656 10.674 6.60656 10.3568 6.79989 10.1653L8.79988 8.18333L6.79989 6.20139C6.60656 6.0098 6.60656 5.69269 6.79989 5.50111C6.99322 5.30952 7.31322 5.30952 7.50655 5.50111L9.85987 7.83318C10.0599 8.02477 10.0599 8.34188 9.85987 8.53347Z" fill="#369B8B"/>
</svg>
