<svg width="104" height="116" viewBox="0 0 104 116" fill="none" xmlns="http://www.w3.org/2000/svg">
<g id="Guides_to_delete">
<g id="Group">
<path id="Vector" d="M9.46889 103.713L0 0.115234H104L94.5194 103.721L51.9747 115.225L9.46889 103.713Z" fill="#E34E26"/>
<path id="Vector_2" d="M52 8.58301V106.425L86.4026 97.1236L94.5084 8.58301H52Z" fill="#EF662A"/>
<path id="Vector_3" d="M19.373 21.291L22.8846 59.7149H68.0358L66.5205 76.1956L51.983 80.0293L37.473 76.2009L36.5027 65.619H23.4268L25.2966 86.0179L51.9796 93.2466L78.6971 86.0179L82.2787 47.0105H34.799L33.6071 33.9985H83.4191H83.4594L84.6262 21.291H19.373Z" fill="white"/>
<g id="Group_2">
<path id="Vector_4" d="M51.9996 21.291H19.373L22.8846 59.7149H51.9996V47.0105H34.799L33.6071 33.9985H51.9996V21.291Z" fill="#EBEBEB"/>
<path id="Vector_5" d="M51.9996 80.0238L51.983 80.0294L37.473 76.201L36.5027 65.6191H23.4268L25.2966 86.018L51.9796 93.2467L51.9996 93.2411V80.0238Z" fill="#EBEBEB"/>
</g>
</g>
</g>
</svg>
