<svg width="195" height="125" viewBox="0 0 195 125" fill="none" xmlns="http://www.w3.org/2000/svg">
<g id="Group">
<g id="Clip path group">
<mask id="mask0_41_527" style="mask-type:luminance" maskUnits="userSpaceOnUse" x="0" y="0" width="195" height="125">
<g id="SVGID_00000150785495286499714270000009982772242062153606_">
<path id="Vector" d="M194.254 0.514648H0V124.569H194.254V0.514648Z" fill="white"/>
</g>
</mask>
<g mask="url(#mask0_41_527)">
<g id="Group_2">
<path id="Vector_2" d="M30.2 96.4614C30.2 96.4614 25.3482 99.2203 33.6652 100.149C43.7347 101.269 48.8899 101.111 59.9883 99.06C59.9883 99.06 62.9111 100.845 66.9937 102.389C42.0883 112.808 10.6432 101.797 30.2 96.4614ZM27.1567 82.8818C27.1567 82.8818 21.7104 86.8133 30.0254 87.6572C40.7891 88.7466 49.2891 88.8297 63.992 86.0728C63.992 86.0728 66.0167 88.0812 69.2221 89.1908C39.1427 97.7698 5.63131 89.8562 27.1567 82.8818Z" fill="#5582A1"/>
<path id="Vector_3" d="M52.7981 59.8355C58.9366 66.7246 51.185 72.9281 51.185 72.9281C51.185 72.9281 66.7548 65.0875 59.6101 55.2609C52.9291 46.0997 47.807 41.5556 75.5375 25.8643C75.5354 25.8541 32.0086 36.4618 52.7981 59.8355Z" fill="#F49734"/>
<path id="Vector_4" d="M85.7145 106.51C85.7145 106.51 89.3086 109.405 81.7524 111.634C67.3841 115.882 21.9594 117.16 9.33522 111.803C4.79732 109.88 13.3098 107.206 15.983 106.646C18.7769 106.054 20.3692 106.159 20.3692 106.159C15.3241 102.692 -12.2338 112.965 6.36885 115.913C57.1172 123.946 98.8708 112.312 85.7145 106.51ZM32.5381 68.8082C32.5381 68.8082 9.43084 74.1657 24.3521 76.1091C30.6548 76.9328 43.2146 76.7441 54.92 75.7825C64.4801 75.0015 74.086 73.3198 74.086 73.3198C74.086 73.3198 70.7184 74.7358 68.2717 76.3526C44.8069 82.3755 -0.528416 79.5761 12.5302 73.4151C23.5621 68.2158 32.5381 68.8082 32.5381 68.8082ZM73.9883 91.4211C97.8418 79.3326 86.8079 67.7087 79.1103 69.2727C77.2269 69.6541 76.3809 69.9908 76.3809 69.9908C76.3809 69.9908 77.0856 68.9238 78.416 68.4592C93.6511 63.2396 105.356 83.8666 73.4998 92.0439C73.5102 92.0236 73.8781 91.7072 73.9883 91.4211Z" fill="#5582A1"/>
<path id="Vector_5" d="M59.6076 0.514648C59.6076 0.514648 72.818 13.4166 47.079 33.2403C26.4413 49.1548 42.3686 58.2206 47.0686 68.5869C35.0161 57.9772 26.1814 48.6375 32.1037 39.9509C40.8095 27.1849 64.9354 20.9935 59.6076 0.514648Z" fill="#F49734"/>
<path id="Vector_6" d="M34.8766 124.199C57.7677 125.625 92.9359 123.406 93.7695 112.829C93.7695 112.829 92.1668 116.833 74.8529 120.014C55.3086 123.607 31.2056 123.185 16.9121 120.88C16.9017 120.892 19.8369 123.248 34.8766 124.199ZM133.812 106.077C131.657 107.905 129.372 108.93 127.327 108.93C124.404 108.93 122.822 107.218 122.822 104.481C122.822 101.511 124.522 99.3445 131.301 99.3445H133.812V106.077ZM139.768 112.638V92.3295C139.768 87.1403 136.737 83.718 129.428 83.718C125.163 83.718 121.427 84.7425 118.384 86.053L119.261 89.6456C121.654 88.7896 124.751 87.9862 127.794 87.9862C132.006 87.9862 133.814 89.6456 133.814 93.0679V95.6361H131.713C121.481 95.6361 116.868 99.5027 116.868 105.337C116.868 110.356 119.912 113.21 125.639 113.21C129.32 113.21 132.07 111.731 134.638 109.554L135.103 112.64H139.768V112.638ZM159.657 112.638H152.23L143.287 84.2353H149.773L155.327 101.692L156.562 106.934C159.366 99.3465 161.347 91.6438 162.345 84.2353H168.658C166.966 93.5872 163.925 103.848 159.657 112.638ZM188.18 106.077C186.014 107.905 183.729 108.93 181.684 108.93C178.761 108.93 177.179 107.218 177.179 104.481C177.179 101.511 178.879 99.3445 185.658 99.3445H188.169L188.18 106.077ZM194.135 112.638V92.3295C194.135 87.1403 191.092 83.718 183.783 83.718C179.518 83.718 175.77 84.7425 172.728 86.053L173.606 89.6456C175.998 88.7896 179.106 87.9862 182.139 87.9862C186.35 87.9862 188.159 89.6456 188.159 93.0679V95.6361H186.057C175.826 95.6361 171.213 99.5027 171.213 105.337C171.213 110.356 174.256 113.21 179.983 113.21C183.665 113.21 186.415 111.731 188.993 109.554L189.458 112.64H194.135V112.638ZM110.327 117.468C108.626 119.888 105.886 121.811 102.876 122.889L99.9309 119.507C102.215 118.355 104.176 116.517 105.084 114.794C105.874 113.263 106.2 111.287 106.2 106.572V74.1328H112.534V106.118C112.534 112.427 112.025 114.975 110.327 117.468Z" fill="#5582A1"/>
</g>
</g>
</g>
</g>
</svg>
