<svg width="110" height="110" viewBox="0 0 110 110" fill="none" xmlns="http://www.w3.org/2000/svg">
<rect x="0.677734" y="0.431641" width="108.738" height="109.137" rx="4.33884" fill="#F4CE14"/>
<path d="M44.6271 46.8473H52.2547V82.8063C52.2547 86.0588 51.6109 88.8408 50.3231 91.1522C49.0518 93.4636 47.2604 95.2302 44.949 96.452C42.6376 97.6572 39.9299 98.2598 36.826 98.2598C33.9698 98.2598 31.4024 97.7398 29.1241 96.6996C26.8622 95.6595 25.0708 94.1488 23.75 92.1676C22.4457 90.1699 21.7936 87.7429 21.7936 84.8866H29.3965C29.3965 86.29 29.7184 87.5035 30.3623 88.5271C31.0227 89.5507 31.9225 90.3515 33.0617 90.9293C34.2174 91.4907 35.5382 91.7713 37.0242 91.7713C38.6421 91.7713 40.0125 91.4329 41.1352 90.756C42.2744 90.0626 43.1412 89.0472 43.7355 87.7099C44.3299 86.3725 44.6271 84.738 44.6271 82.8063V46.8473ZM91.0556 60.171C90.7915 57.8265 89.7018 56.0104 87.7866 54.7226C85.8714 53.4183 83.461 52.7662 80.5552 52.7662C78.4749 52.7662 76.6753 53.0964 75.1564 53.7568C73.6374 54.4007 72.457 55.2922 71.6149 56.4314C70.7894 57.5541 70.3767 58.8336 70.3767 60.27C70.3767 61.4753 70.6574 62.5154 71.2187 63.3904C71.7966 64.2655 72.5478 65.0002 73.4723 65.5945C74.4134 66.1724 75.4205 66.6594 76.4937 67.0557C77.5668 67.4354 78.5987 67.7491 79.5893 67.9968L84.5424 69.2845C86.1604 69.6808 87.8196 70.2174 89.5202 70.8943C91.2207 71.5712 92.7974 72.4627 94.2503 73.5689C95.7032 74.6751 96.8754 76.0454 97.767 77.68C98.675 79.3145 99.1291 81.2709 99.1291 83.5493C99.1291 86.4221 98.3861 88.9729 96.9002 91.2017C95.4308 93.4306 93.2927 95.1889 90.486 96.4767C87.6958 97.7645 84.3195 98.4084 80.3571 98.4084C76.5597 98.4084 73.2742 97.8058 70.5005 96.6006C67.7268 95.3953 65.5557 93.6865 63.9873 91.4742C62.4188 89.2453 61.552 86.6037 61.3869 83.5493H69.0641C69.2127 85.3819 69.8071 86.9091 70.8472 88.1309C71.9039 89.3361 73.2494 90.2359 74.8839 90.8303C76.535 91.4081 78.3428 91.6971 80.3075 91.6971C82.4704 91.6971 84.3938 91.3586 86.0778 90.6817C87.7784 89.9883 89.1157 89.0307 90.0898 87.8089C91.0639 86.5707 91.5509 85.126 91.5509 83.475C91.5509 81.9726 91.1217 80.7426 90.2631 79.785C89.4211 78.8274 88.2737 78.0349 86.8208 77.4075C85.3844 76.7801 83.7581 76.2271 81.942 75.7483L75.9489 74.1138C71.8874 73.0076 68.6679 71.3813 66.2904 69.235C63.9295 67.0887 62.749 64.249 62.749 60.7158C62.749 57.7935 63.5415 55.2427 65.1265 53.0633C66.7114 50.884 68.8577 49.1917 71.5654 47.9865C74.2731 46.7647 77.3274 46.1539 80.7285 46.1539C84.1626 46.1539 87.1923 46.7565 89.8174 47.9617C92.459 49.167 94.5393 50.8262 96.0582 52.9395C97.5771 55.0363 98.3696 57.4468 98.4357 60.171H91.0556Z" fill="black"/>
</svg>
