<svg width="98" height="98" viewBox="0 0 98 98" fill="none" xmlns="http://www.w3.org/2000/svg">
<g id="mysql-seeklogo 1" clip-path="url(#clip0_41_623)">
<path id="Vector" d="M90.2095 75.5267C84.8814 75.3918 80.752 75.9334 77.2886 77.4215C76.2895 77.8273 74.6909 77.8277 74.5576 79.113C75.0908 79.6546 75.1572 80.5341 75.6235 81.2782C76.4232 82.6309 77.8213 84.4582 79.0869 85.4056C80.4854 86.488 81.8843 87.5704 83.3492 88.5178C85.9468 90.1418 88.8774 91.0887 91.4082 92.7127C92.874 93.6592 94.3385 94.8779 95.8038 95.8928C96.5367 96.4335 97.0025 97.3134 97.9351 97.6517V97.4488C97.4688 96.8397 97.3356 95.9603 96.8697 95.2837C96.2041 94.6071 95.5377 93.998 94.8716 93.3214C92.94 90.6829 90.5425 88.3824 87.9449 86.488C85.814 84.9994 81.1514 82.9697 80.2857 80.4662C80.2857 80.4662 80.2188 80.3987 80.1524 80.3312C81.6177 80.1958 83.3492 79.6546 84.7481 79.2484C87.0127 78.6393 89.0772 78.7747 91.4082 78.166C92.4737 77.8952 93.5396 77.5569 94.6051 77.2186V76.61C93.4067 75.3918 92.5406 73.7682 91.275 72.6179C87.8784 69.6403 84.1485 66.7315 80.2857 64.2959C78.2207 62.9427 75.5567 62.0628 73.3589 60.913C72.56 60.5063 71.2276 60.3039 70.7617 59.6273C69.5625 58.1387 68.8965 56.1768 68.0308 54.4174C66.1 50.6958 64.2344 46.5692 62.5693 42.645C61.371 40.0062 60.6381 37.3673 59.1728 34.9318C52.3129 23.4297 44.8534 16.4609 33.3978 9.62712C30.9335 8.20645 28.0033 7.59735 24.8729 6.85328C23.2083 6.78536 21.5428 6.65039 19.8777 6.58247C18.8123 6.10877 17.7464 4.82351 16.8138 4.21441C13.0183 1.77843 3.22728 -3.49847 0.429932 3.47033C-1.3684 7.86818 3.09401 12.1981 4.62575 14.4312C5.75848 15.9872 7.22339 17.7462 8.02269 19.5056C8.48899 20.655 8.62185 21.8737 9.08815 23.0914C10.154 26.0677 11.1526 29.3836 12.5515 32.1579C13.2844 33.5786 14.0833 35.0672 15.0159 36.3524C15.5486 37.0965 16.4808 37.4352 16.6809 38.653C15.7488 40.0062 15.6819 42.036 15.1487 43.7274C12.7513 51.3728 13.6838 60.8451 17.0804 66.4607C18.1458 68.1517 20.677 71.8738 24.0736 70.4527C27.0707 69.235 26.4046 65.3783 27.2704 61.9953C27.4705 61.1829 27.3372 60.6422 27.7367 60.101C27.737 60.1685 27.7367 60.2364 27.7367 60.2364C28.6693 62.1307 29.6014 63.9576 30.4672 65.852C32.5321 69.167 36.1283 72.6179 39.1254 74.9185C40.7244 76.1358 41.9896 78.2335 43.9877 78.978V78.7747H43.8544C43.4545 78.1656 42.8554 77.8952 42.3226 77.4215C41.1239 76.2037 39.7914 74.7151 38.8592 73.362C36.0623 69.5728 33.5975 65.3783 31.3998 61.048C30.3343 58.9507 29.4017 56.6501 28.536 54.5529C28.1361 53.7404 28.1361 52.5231 27.4701 52.1173C26.4711 53.6055 25.0062 54.8912 24.2733 56.718C23.0085 59.6273 22.8748 63.2131 22.4085 66.9344C22.1424 67.0023 22.2752 66.9344 22.1419 67.0698C20.011 66.5282 19.2782 64.2959 18.4788 62.4011C16.4808 57.5975 16.1478 49.8842 17.8797 44.3365C18.346 42.9154 20.344 38.4501 19.5447 37.0969C19.1453 35.8112 17.8128 35.0672 17.0804 34.0523C16.2146 32.7666 15.282 31.143 14.6829 29.7219C13.0843 25.9332 12.2849 21.7383 10.5535 17.9491C9.75417 16.1897 8.3557 14.3633 7.22339 12.7397C5.95821 10.9128 4.55931 9.62712 3.56027 7.46194C3.22768 6.71786 2.76097 5.50009 3.2937 4.68809C3.42699 4.14691 3.69314 3.94402 4.22629 3.80861C5.09203 3.06411 7.55638 4.0115 8.4221 4.41729C10.8865 5.43174 12.9509 6.37957 15.0159 7.80024C15.948 8.47682 16.9471 9.76252 18.1458 10.1008H19.5447C21.676 10.5741 24.0735 10.2362 26.0716 10.8449C29.6018 11.9948 32.7982 13.6867 35.6624 15.5135C44.3875 21.1291 51.58 29.1132 56.4423 38.653C57.2416 40.2086 57.5742 41.6302 58.3071 43.2537C59.706 46.5692 61.4374 49.9521 62.8359 53.1997C64.2344 56.3793 65.5664 59.6273 67.5645 62.2662C68.5639 63.6864 72.5596 64.4309 74.3579 65.1754C75.6899 65.7841 77.7549 66.3257 78.9536 67.0698C81.2178 68.49 83.4825 70.1145 85.6138 71.6705C86.6797 72.4821 90.0094 74.174 90.2095 75.5267Z" fill="white"/>
<path id="Vector_2" d="M22.2744 16.7305C21.1421 16.7305 20.3433 16.8663 19.5439 17.0692C19.5439 17.0692 19.5439 17.1371 19.5439 17.2046H19.6772C20.2104 18.287 21.1421 19.0315 21.8082 19.9784C22.3413 21.0608 22.8072 22.1436 23.3403 23.2264C23.4068 23.1585 23.4732 23.091 23.4732 23.091C24.4062 22.414 24.8721 21.3316 24.8721 19.7081C24.4722 19.2344 24.4058 18.7607 24.0728 18.287C23.6733 17.6099 22.8072 17.2721 22.2744 16.7305Z" fill="#909090"/>
</g>
<defs>
<clipPath id="clip0_41_623">
<rect width="98" height="98" fill="white"/>
</clipPath>
</defs>
</svg>
