<svg width="110" height="123" viewBox="0 0 110 123" fill="none" xmlns="http://www.w3.org/2000/svg">
<g id="node-js-seeklogo 1" clip-path="url(#clip0_41_582)">
<g id="Group">
<path id="Vector" d="M55 122.772C53.2919 122.772 51.6977 122.321 50.2174 121.531L35.0725 112.621C32.795 111.38 33.9338 110.929 34.617 110.703C37.6915 109.688 38.2609 109.463 41.4493 107.658C41.7909 107.432 42.2464 107.545 42.588 107.771L54.2029 114.651C54.6584 114.876 55.2277 114.876 55.5694 114.651L101.004 88.5964C101.46 88.3709 101.687 87.9197 101.687 87.3558V35.3596C101.687 34.7957 101.46 34.3445 101.004 34.1189L55.5694 8.17727C55.1139 7.95169 54.5445 7.95169 54.2029 8.17727L8.76812 34.1189C8.31263 34.3445 8.08489 34.9085 8.08489 35.3596V87.3558C8.08489 87.8069 8.31263 88.3709 8.76812 88.5964L21.1801 95.7022C27.8986 99.0859 32.1118 95.1383 32.1118 91.1906V39.8712C32.1118 39.1945 32.6812 38.5177 33.4783 38.5177H39.2857C39.9689 38.5177 40.6522 39.0817 40.6522 39.8712V91.1906C40.6522 100.101 35.7557 105.289 27.2153 105.289C24.5963 105.289 22.5466 105.289 16.7391 102.47L4.78261 95.7022C1.82195 94.0104 0 90.8522 0 87.4686V35.4724C0 32.0887 1.82195 28.9306 4.78261 27.2388L50.2174 1.18429C53.0642 -0.394764 56.9358 -0.394764 59.7826 1.18429L105.217 27.2388C108.178 28.9306 110 32.0887 110 35.4724V87.4686C110 90.8522 108.178 94.0104 105.217 95.7022L59.7826 121.757C58.3023 122.433 56.5942 122.772 55 122.772ZM69.0062 87.0174C49.0787 87.0174 44.9793 77.9942 44.9793 70.3245C44.9793 69.6477 45.5487 68.971 46.3458 68.971H52.2671C52.9503 68.971 53.5197 69.4222 53.5197 70.0989C54.4306 76.0768 57.0497 79.0093 69.1201 79.0093C78.6853 79.0093 82.7847 76.8663 82.7847 71.7908C82.7847 68.8582 81.646 66.7152 66.7288 65.2489C54.3168 64.0083 46.5735 61.3013 46.5735 51.4886C46.5735 42.3526 54.3168 36.9387 67.2981 36.9387C81.8737 36.9387 89.0476 41.9014 89.9586 52.7293C89.9586 53.0676 89.8447 53.406 89.617 53.7444C89.3892 53.97 89.0476 54.1955 88.706 54.1955H82.7847C82.2153 54.1955 81.646 53.7444 81.5321 53.1804C80.1656 46.977 76.6356 44.9468 67.2981 44.9468C56.8219 44.9468 55.5694 48.556 55.5694 51.263C55.5694 54.5339 57.0497 55.549 71.1698 57.3537C85.176 59.1583 91.7805 61.7525 91.7805 71.4524C91.6667 81.3779 83.4679 87.0174 69.0062 87.0174Z" fill="#539E43"/>
</g>
</g>
<defs>
<clipPath id="clip0_41_582">
<rect width="110" height="123" fill="white"/>
</clipPath>
</defs>
</svg>
