<svg width="40" height="40" viewBox="0 0 40 40" fill="none" xmlns="http://www.w3.org/2000/svg">
<path d="M20 0C8.95652 0 0 8.95652 0 20C0 31.0435 8.95652 40 20 40C31.0435 40 40 31.0435 40 20C40 8.95652 31.0435 0 20 0ZM21.6087 36.4348C21.5217 36.4348 21.4348 36.4348 21.3043 36.4783V27.0435C23.5652 27 25.6087 26.9565 27.4783 26.8261C25.8261 31.913 22.7391 35.3043 21.6087 36.4348ZM18.3913 36.4348C17.2174 35.2609 14.1739 31.8696 12.5217 26.8261C14.3478 26.9565 16.4348 27.0435 18.6957 27.0435V36.4783C18.6087 36.4783 18.5217 36.4348 18.3913 36.4348ZM3.47826 20C3.47826 18.913 3.6087 17.8261 3.78261 16.7826C4.73913 16.6087 6.56522 16.3478 9.13043 16.087C8.91304 17.3478 8.78261 18.6522 8.78261 20.0435C8.78261 21.4348 8.91304 22.7391 9.08696 23.9565C6.56522 23.6957 4.69565 23.4348 3.73913 23.2609C3.6087 22.1739 3.47826 21.087 3.47826 20ZM11.4348 20C11.4348 18.5217 11.6087 17.1304 11.8696 15.8261C13.8696 15.6957 16.1304 15.5652 18.6957 15.5652V24.4348C16.1739 24.3913 13.8696 24.3043 11.8261 24.1304C11.6087 22.8696 11.4348 21.4783 11.4348 20ZM21.5652 3.56522C22.7391 4.73913 25.7391 8.21739 27.4348 13.1739C25.6087 13.0435 23.5652 12.9565 21.3043 12.9565V3.52174C21.3913 3.52174 21.4783 3.56522 21.5652 3.56522ZM18.6957 3.52174V12.9565C16.4348 13 14.3913 13.0435 12.5652 13.1739C14.2174 8.21739 17.2609 4.73913 18.3913 3.56522C18.5217 3.56522 18.6087 3.52174 18.6957 3.52174ZM21.3043 24.4348V15.5652C23.8261 15.6087 26.1304 15.6957 28.1304 15.8261C28.3913 17.1304 28.5652 18.5217 28.5652 20C28.5652 21.4783 28.4348 22.8696 28.1739 24.1739C26.1739 24.3043 23.8696 24.3913 21.3043 24.4348ZM30.8261 16.087C33.3913 16.3478 35.2174 16.6087 36.1739 16.7826C36.3913 17.8261 36.5217 18.913 36.5217 20C36.5217 21.087 36.3913 22.1739 36.2174 23.2174C35.2609 23.3913 33.4348 23.6522 30.8696 23.913C31.087 22.6522 31.1739 21.3478 31.1739 19.9565C31.1739 18.6522 31.0435 17.3043 30.8261 16.087ZM35.3913 14C34.1739 13.8261 32.4348 13.6087 30.2174 13.3913C29.1739 9.65217 27.3478 6.65217 25.8261 4.52174C30.2174 6.17391 33.6957 9.65217 35.3913 14ZM14.1739 4.52174C12.6087 6.6087 10.8261 9.6087 9.78261 13.3478C7.6087 13.5217 5.86957 13.7826 4.6087 13.9565C6.30435 9.65217 9.82609 6.17391 14.1739 4.52174ZM4.6087 26C5.82609 26.1739 7.56522 26.3913 9.73913 26.6087C10.7826 30.3478 12.5217 33.3478 14.087 35.4348C9.73913 33.7391 6.30435 30.3043 4.6087 26ZM25.913 35.4348C27.4783 33.3478 29.2174 30.3913 30.2609 26.6522C32.4348 26.4783 34.1739 26.2174 35.3913 26.0435C33.6957 30.3043 30.2609 33.7391 25.913 35.4348Z" fill="black"/>
</svg>
