<svg width="206" height="110" viewBox="0 0 206 110" fill="none" xmlns="http://www.w3.org/2000/svg">
<g id="php-seeklogo 1" clip-path="url(#clip0_41_609)">
<g id="Group">
<path id="Vector" d="M102.839 109.177C159.636 109.177 205.678 84.8489 205.678 54.8385C205.678 24.8282 159.636 0.5 102.839 0.5C46.0426 0.5 0 24.8282 0 54.8385C0 84.8489 46.0426 109.177 102.839 109.177Z" fill="url(#paint0_radial_41_609)"/>
<path id="Vector_2" d="M102.84 105.14C157.417 105.14 201.662 82.6193 201.662 54.8386C201.662 27.0578 157.417 4.53711 102.84 4.53711C48.2617 4.53711 4.01758 27.0578 4.01758 54.8386C4.01758 82.6193 48.2617 105.14 102.84 105.14Z" fill="#6181B6"/>
<g id="Group_2">
<path id="Vector_3" d="M122.845 71.1487L127.746 45.7961C128.871 40.0635 127.906 35.7843 125.014 33.1198C122.202 30.5361 117.382 29.2443 110.311 29.2443H101.795L104.205 16.6487C104.286 16.1643 104.205 15.6798 103.884 15.2761C103.562 14.8724 103.161 14.7109 102.679 14.7109H90.9486C90.1452 14.7109 89.5025 15.2761 89.3418 16.0028L84.1195 42.8895C83.6374 39.8213 82.5126 37.2376 80.5844 35.1383C77.1296 31.1821 71.7466 29.1635 64.4354 29.1635H41.859C41.0556 29.1635 40.4128 29.7287 40.2522 30.4554L29.7272 85.0361C29.6469 85.5206 29.7272 86.005 30.0486 86.4087C30.37 86.8124 30.7717 86.9739 31.2537 86.9739H43.0642C43.8676 86.9739 44.5103 86.4087 44.671 85.6821L47.242 72.5213H55.9994C60.579 72.5213 64.5158 72.0369 67.4885 71.068C70.6218 70.0184 73.4338 68.3228 75.9245 65.9813C77.9331 64.1243 79.6203 62.025 80.9058 59.7643L78.8168 70.6643C78.7365 71.1487 78.8168 71.6332 79.1382 72.0369C79.4596 72.4406 79.8613 72.6021 80.3434 72.6021H92.0734C92.8769 72.6021 93.5196 72.0369 93.6803 71.3102L99.465 41.4361H107.499C110.954 41.4361 111.918 42.0821 112.24 42.405C112.481 42.6472 112.963 43.6161 112.4 46.6035L107.74 70.745C107.66 71.2295 107.74 71.7139 108.062 72.1176C108.383 72.5213 108.785 72.6828 109.267 72.6828H121.318C122.041 72.4406 122.684 71.8754 122.845 71.1487ZM68.5329 50.1561C67.8098 53.9509 66.444 56.6961 64.4354 58.2302C62.4268 59.7643 59.1328 60.5717 54.7943 60.5717H49.572L53.3481 41.0324H60.0969C65.0782 41.0324 67.0867 42.0821 67.8902 42.9702C68.9346 44.2621 69.1757 46.765 68.5329 50.1561Z" fill="white"/>
<path id="Vector_4" d="M172.979 35.1379C169.525 31.1816 164.142 29.1631 156.83 29.1631H134.093C133.29 29.1631 132.647 29.7283 132.487 30.4549L121.962 84.9549C121.881 85.4394 121.962 85.9238 122.283 86.3275C122.604 86.7312 123.006 86.8927 123.488 86.8927H135.299C136.102 86.8927 136.745 86.3275 136.905 85.6009L139.476 72.4401H148.234C152.813 72.4401 156.75 71.9557 159.723 70.9868C162.856 69.9372 165.668 68.2416 168.159 65.9001C170.248 63.9623 172.015 61.7823 173.301 59.4409C174.586 57.0994 175.55 54.5157 176.113 51.6898C177.479 44.6653 176.434 39.1749 172.979 35.1379ZM160.687 50.1557C159.964 53.9505 158.598 56.6957 156.589 58.2298C154.581 59.7638 151.287 60.5712 146.948 60.5712H141.726L145.502 41.032H152.251C157.232 41.032 159.241 42.0816 160.044 42.9698C161.169 44.2616 161.41 46.7646 160.687 50.1557Z" fill="white"/>
</g>
<g id="Group_3">
<path id="Vector_5" d="M60.0968 39.4166C64.596 39.4166 67.5687 40.224 69.0952 41.9196C70.6217 43.6151 70.9431 46.441 70.1397 50.4781C69.3363 54.6766 67.7294 57.7447 65.3994 59.521C63.0695 61.2973 59.5344 62.1855 54.7942 62.1855H47.6436L52.0625 39.4166H60.0968ZM31.334 85.2773H43.1444L45.9564 70.8247H56.0797C60.5789 70.8247 64.1943 70.3403 67.0867 69.3714C69.979 68.4025 72.55 66.8685 74.9603 64.6077C76.9689 62.7507 78.5757 60.7322 79.7809 58.5522C80.986 56.3722 81.8698 53.9499 82.3518 51.2855C83.6373 44.8262 82.6732 39.8203 79.5398 36.187C76.4064 32.5536 71.4252 30.7773 64.596 30.7773H41.8589L31.334 85.2773Z" fill="#000004"/>
<path id="Vector_6" d="M91.0289 16.3252H102.759L99.9469 30.7778H110.392C116.98 30.7778 121.479 31.9082 123.97 34.2496C126.46 36.5911 127.183 40.3052 126.219 45.4726L121.318 70.8252H109.427L114.087 46.6837C114.65 43.9385 114.409 42.0815 113.525 41.1126C112.641 40.1437 110.633 39.5785 107.66 39.5785H98.2597L92.234 70.8252H80.5039L91.0289 16.3252Z" fill="#000004"/>
<path id="Vector_7" d="M152.25 39.4166C156.749 39.4166 159.722 40.224 161.249 41.9196C162.775 43.6151 163.096 46.441 162.293 50.4781C161.49 54.6766 159.883 57.7447 157.553 59.521C155.223 61.2973 151.688 62.1855 146.947 62.1855H139.797L144.216 39.4166H152.25ZM123.487 85.2773H135.298L138.11 70.8247H148.233C152.732 70.8247 156.348 70.3403 159.24 69.3714C162.132 68.4025 164.703 66.8685 167.114 64.6077C169.122 62.7507 170.729 60.7322 171.934 58.5522C173.139 56.3722 174.023 53.9499 174.505 51.2855C175.791 44.8262 174.827 39.8203 171.693 36.187C168.56 32.5536 163.579 30.7773 156.749 30.7773H134.012L123.487 85.2773Z" fill="#000004"/>
</g>
</g>
</g>
<defs>
<radialGradient id="paint0_radial_41_609" cx="0" cy="0" r="1" gradientUnits="userSpaceOnUse" gradientTransform="translate(61.7451 19.6095) scale(135.053 135.721)">
<stop stop-color="white"/>
<stop offset="0.5" stop-color="#4C6B97"/>
<stop offset="1" stop-color="#231F20"/>
</radialGradient>
<clipPath id="clip0_41_609">
<rect width="205.678" height="109" fill="white" transform="translate(0 0.5)"/>
</clipPath>
</defs>
</svg>
