<svg width="108" height="105" viewBox="0 0 108 105" fill="none" xmlns="http://www.w3.org/2000/svg">
<g id="adobe-photoshop-seeklogo 1" clip-path="url(#clip0_41_572)">
<g id="Layer_2_1_">
<g id="Surfaces">
<g id="Photo_Surface">
<g id="Outline_no_shadow">
<path id="Vector" d="M19.125 0H88.875C99.45 0 108 8.52564 108 19.0705V85.9295C108 96.4744 99.45 105 88.875 105H19.125C8.55 105 0 96.4744 0 85.9295V19.0705C0 8.52564 8.55 0 19.125 0Z" fill="#001E36"/>
</g>
</g>
</g>
<g id="Outlined_Mnemonics_Logos">
<g id="Ps">
<path id="Vector_2" d="M24.2998 73.6341V27.4611C24.2998 27.147 24.4348 26.9675 24.7498 26.9675C25.5148 26.9675 26.2348 26.9675 27.2698 26.9226C28.3498 26.8777 29.4748 26.8777 30.6898 26.8329C31.9048 26.788 33.2098 26.788 34.6048 26.7431C35.9998 26.6982 37.3498 26.6982 38.6998 26.6982C42.3898 26.6982 45.4498 27.147 47.9698 28.0893C50.2198 28.8521 52.2898 30.1085 53.9998 31.7688C55.4398 33.2047 56.5648 34.9547 57.2848 36.8841C57.9598 38.7688 58.3198 40.6982 58.3198 42.7175C58.3198 46.5764 57.4198 49.7623 55.6198 52.2752C53.8198 54.788 51.2998 56.6726 48.3748 57.7495C45.3148 58.8713 41.9398 59.2752 38.2498 59.2752C37.1698 59.2752 36.4498 59.2752 35.9998 59.2303C35.5498 59.1854 34.9198 59.1854 34.0648 59.1854V73.5893C34.1098 73.9034 33.8848 74.1726 33.5698 74.2175C33.5248 74.2175 33.4798 74.2175 33.3898 74.2175H24.8398C24.4798 74.2175 24.2998 74.038 24.2998 73.6341ZM34.1098 35.6277V50.7047C34.7398 50.7495 35.3248 50.7944 35.8648 50.7944H38.2498C40.0048 50.7944 41.7598 50.5252 43.4248 49.9867C44.8648 49.5829 46.1248 48.7303 47.1148 47.6085C48.0598 46.4867 48.5098 44.9611 48.5098 42.9867C48.5548 41.5957 48.1948 40.2047 47.4748 38.9931C46.7098 37.8264 45.6298 36.929 44.3248 36.4354C42.6598 35.7623 40.8598 35.4931 39.0148 35.538C37.8448 35.538 36.8098 35.538 35.9548 35.5829C35.0548 35.538 34.4248 35.5829 34.1098 35.6277Z" fill="#31A8FF"/>
<path id="Vector_3" d="M86.3996 47.9672C85.0496 47.2492 83.6096 46.7557 82.0796 46.4416C80.4146 46.0826 78.7496 45.8582 77.0396 45.8582C76.1396 45.8133 75.1946 45.948 74.3396 46.1723C73.7546 46.3069 73.2596 46.621 72.9446 47.0698C72.7196 47.4287 72.5846 47.8775 72.5846 48.2813C72.5846 48.6851 72.7646 49.089 73.0346 49.448C73.4396 49.9416 73.9796 50.3454 74.5646 50.6595C75.5996 51.198 76.6796 51.6916 77.7596 52.1403C80.1896 52.948 82.5296 54.0698 84.6896 55.4159C86.1746 56.3582 87.3896 57.6146 88.2446 59.1403C88.9646 60.5762 89.3246 62.1467 89.2796 63.7621C89.3246 65.871 88.6946 67.98 87.5246 69.73C86.2646 71.5249 84.5096 72.9159 82.4846 73.7236C80.2796 74.6659 77.5796 75.1595 74.3396 75.1595C72.2696 75.1595 70.2446 74.98 68.2196 74.5762C66.6446 74.3069 65.0696 73.8134 63.6296 73.1403C63.3146 72.9608 63.0896 72.6467 63.1346 72.2877V64.48C63.1346 64.3454 63.1796 64.1659 63.3146 64.0762C63.4496 63.9864 63.5846 64.0313 63.7196 64.121C65.4746 65.1531 67.3196 65.871 69.2996 66.3198C71.0096 66.7685 72.8096 66.9928 74.6096 66.9928C76.3196 66.9928 77.5346 66.7685 78.3446 66.3646C79.0646 66.0505 79.5596 65.2877 79.5596 64.48C79.5596 63.8518 79.1996 63.2685 78.4796 62.6851C77.7596 62.1018 76.2746 61.4287 74.0696 60.5762C71.7746 59.7685 69.6596 58.6916 67.6796 57.3454C66.2846 56.3582 65.1146 55.0569 64.2596 53.5313C63.5396 52.0954 63.1796 50.5249 63.2246 48.9544C63.2246 47.0249 63.7646 45.1851 64.7546 43.5249C65.8796 41.73 67.5446 40.2941 69.4796 39.3967C71.5946 38.3198 74.2496 37.8262 77.4446 37.8262C79.2896 37.8262 81.1796 37.9608 83.0246 38.23C84.3746 38.4095 85.6796 38.7685 86.8946 39.2621C87.0746 39.3069 87.2546 39.4864 87.3446 39.6659C87.3896 39.8454 87.4346 40.0249 87.4346 40.2044V47.5185C87.4346 47.698 87.3446 47.8775 87.2096 47.9672C86.8046 48.0569 86.5796 48.0569 86.3996 47.9672Z" fill="#31A8FF"/>
</g>
</g>
</g>
</g>
<defs>
<clipPath id="clip0_41_572">
<rect width="108" height="105" fill="white"/>
</clipPath>
</defs>
</svg>
