<svg width="98" height="98" viewBox="0 0 98 98" fill="none" xmlns="http://www.w3.org/2000/svg">
<g id="python-seeklogo 1" clip-path="url(#clip0_41_588)">
<g id="Group">
<path id="Vector" d="M48.5853 0.0273438C23.7667 0.0273455 25.3165 10.8324 25.3165 10.8324L25.3442 22.0263H49.028V25.3873H15.9371C15.9371 25.3873 0.0556641 23.5791 0.0556641 48.7195C0.0556623 73.8599 13.9173 72.9684 13.9173 72.9684H22.1901V61.3023C22.1901 61.3023 21.7441 47.3863 35.8304 47.3863H59.3205C59.3205 47.3863 72.5181 47.6004 72.5181 34.5813V13.0545C72.5181 13.0545 74.5219 0.0273438 48.5853 0.0273438ZM35.526 7.55477C37.8824 7.55477 39.7869 9.46675 39.7869 11.8324C39.7869 14.198 37.8824 16.1099 35.526 16.1099C33.1697 16.1099 31.2652 14.198 31.2652 11.8324C31.2652 9.46675 33.1697 7.55477 35.526 7.55477Z" fill="url(#paint0_linear_41_588)"/>
<path id="Vector_2" d="M49.29 97.6637C74.1086 97.6637 72.5588 86.8587 72.5588 86.8587L72.5311 75.6647H48.8473V72.3038H81.9382C81.9382 72.3038 97.8196 74.1119 97.8196 48.9715C97.8196 23.8311 83.958 24.7227 83.958 24.7227H75.6852V36.3888C75.6852 36.3888 76.1312 50.3048 62.0449 50.3048H38.5548C38.5548 50.3048 25.3572 50.0906 25.3572 63.1098V84.6365C25.3572 84.6365 23.3534 97.6637 49.29 97.6637ZM62.3493 90.1363C59.9929 90.1363 58.0884 88.2243 58.0884 85.8587C58.0884 83.4931 59.9929 81.5811 62.3493 81.5811C64.7056 81.5811 66.6102 83.4931 66.6102 85.8587C66.6102 88.2243 64.7056 90.1363 62.3493 90.1363Z" fill="url(#paint1_linear_41_588)"/>
</g>
</g>
<defs>
<linearGradient id="paint0_linear_41_588" x1="939.588" y1="878.241" x2="5803.19" y2="5674.52" gradientUnits="userSpaceOnUse">
<stop stop-color="#387EB8"/>
<stop offset="1" stop-color="#366994"/>
</linearGradient>
<linearGradient id="paint1_linear_41_588" x1="1412.04" y1="1525.87" x2="6634.09" y2="6443.15" gradientUnits="userSpaceOnUse">
<stop stop-color="#FFE052"/>
<stop offset="1" stop-color="#FFC331"/>
</linearGradient>
<clipPath id="clip0_41_588">
<rect width="98" height="98" fill="white"/>
</clipPath>
</defs>
</svg>
