<svg width="137" height="137" viewBox="0 0 137 137" fill="none" xmlns="http://www.w3.org/2000/svg">
<path d="M68.5008 60.7945C73.9982 60.7945 78.4547 56.338 78.4547 50.8406C78.4547 45.3432 73.9982 40.8867 68.5008 40.8867C63.0034 40.8867 58.5469 45.3432 58.5469 50.8406C58.5469 56.338 63.0034 60.7945 68.5008 60.7945Z" fill="#61DAFB"/>
<path d="M68.5004 87.4449C76.3137 95.0441 84.0199 99.5395 90.2277 99.5395C92.2613 99.5395 94.1879 99.1113 95.7934 98.148C101.359 94.9371 103.393 86.9098 101.466 75.4574C101.145 73.4238 100.717 71.3902 100.182 69.2496C102.322 68.6074 104.249 67.9652 106.175 67.3231C116.986 63.1488 122.979 57.3691 122.979 51.0543C122.979 44.6324 116.986 38.8527 106.175 34.7855C104.249 34.0363 102.322 33.3941 100.182 32.859C100.717 30.7184 101.145 28.6848 101.466 26.6512C103.286 14.9848 101.252 6.85039 95.6863 3.63945C94.0809 2.67617 92.1543 2.24805 90.1207 2.24805C84.0199 2.24805 76.2066 6.74336 68.3934 14.3426C60.6871 6.74336 52.9809 2.24805 46.773 2.24805C44.7395 2.24805 42.8129 2.67617 41.2074 3.63945C35.6418 6.85039 33.6082 14.8777 35.5348 26.3301C35.8559 28.3637 36.284 30.3973 36.8191 32.5379C34.6785 33.1801 32.752 33.8223 30.8254 34.4645C20.0152 38.6387 14.0215 44.4184 14.0215 50.7332C14.0215 57.1551 20.0152 62.9348 30.8254 67.002C32.752 67.7512 34.6785 68.3934 36.8191 68.9285C36.284 71.0691 35.8559 73.1027 35.5348 75.1363C33.7152 86.5887 35.7488 94.7231 41.2074 97.827C42.8129 98.7902 44.7395 99.2184 46.773 99.2184C52.9809 99.4324 60.6871 94.9371 68.5004 87.4449ZM62.5066 72.9957C64.4332 73.1027 66.4668 73.1027 68.5004 73.1027C70.534 73.1027 72.5676 73.1027 74.4941 72.9957C72.5676 75.5645 70.534 77.9191 68.5004 80.1668C66.4668 77.9191 64.4332 75.5645 62.5066 72.9957ZM49.2348 61.9715C50.3051 63.791 51.2684 65.5035 52.4457 67.216C49.1277 66.7879 46.0238 66.2527 43.027 65.6105C43.9902 62.7207 45.0605 59.7238 46.3449 56.727C47.2012 58.4395 48.1645 60.259 49.2348 61.9715ZM43.027 36.177C46.0238 35.5348 49.1277 34.9996 52.4457 34.5715C51.3754 36.284 50.3051 37.9965 49.2348 39.816C48.1645 41.6355 47.2012 43.348 46.3449 45.1676C44.9535 42.0637 43.8832 39.0668 43.027 36.177ZM48.9137 50.8402C50.3051 47.9504 51.8035 45.0606 53.516 42.1707C55.1215 39.3879 56.941 36.6051 58.7606 33.8223C61.9715 33.6082 65.1824 33.5012 68.5004 33.5012C71.9254 33.5012 75.1363 33.6082 78.2402 33.8223C80.1668 36.6051 81.8793 39.3879 83.4848 42.1707C85.1973 45.0606 86.6957 47.9504 88.0871 50.8402C86.6957 53.7301 85.1973 56.6199 83.4848 59.5098C81.8793 62.2926 80.0598 65.0754 78.2402 67.8582C75.0293 68.0723 71.8184 68.1793 68.5004 68.1793C65.0754 68.1793 61.8645 68.0723 58.7606 67.8582C56.834 65.0754 55.1215 62.2926 53.516 59.5098C51.8035 56.6199 50.3051 53.7301 48.9137 50.8402ZM90.7629 45.0605L87.873 39.709C86.8027 37.8895 85.8395 36.177 84.6621 34.4645C87.9801 34.8926 91.084 35.4277 94.0809 36.0699C93.1176 39.0668 92.0473 42.0637 90.7629 45.0605ZM90.7629 56.6199C92.0473 59.6168 93.1176 62.6137 94.0809 65.5035C91.084 66.1457 87.9801 66.6809 84.6621 67.109C85.7324 65.3965 86.8027 63.684 87.873 61.8645C88.8363 60.259 89.7996 58.4395 90.7629 56.6199ZM93.2246 93.7598C92.3684 94.2949 91.298 94.509 90.1207 94.509C84.8762 94.509 78.3473 90.2277 71.9254 83.8059C75.0293 80.4879 78.0262 76.7418 81.023 72.5676C86.0535 72.1395 90.8699 71.3902 95.3652 70.3199C95.9004 72.2465 96.2215 74.173 96.5426 76.0996C98.041 85.1973 96.8637 91.7262 93.2246 93.7598ZM98.7902 37.3543C110.778 40.7793 117.949 46.0238 117.949 50.8402C117.949 55.0145 113.025 59.1887 104.356 62.5066C102.643 63.1488 100.717 63.791 98.7902 64.3262C97.3988 59.9379 95.6863 55.4426 93.5457 50.8402C95.6863 46.2379 97.5059 41.7426 98.7902 37.3543ZM90.2277 7.17148C91.4051 7.17148 92.3684 7.38555 93.3316 7.9207C96.8637 9.9543 98.148 16.3762 96.6496 25.5809C96.3285 27.4004 95.9004 29.327 95.4723 31.3605C90.977 30.3973 86.1606 29.648 81.1301 29.1129C78.2402 24.9387 75.1363 21.1926 72.0324 17.8746C78.4543 11.5598 84.9832 7.17148 90.2277 7.17148ZM74.4941 28.6848C72.5676 28.5777 70.534 28.5777 68.5004 28.5777C66.4668 28.5777 64.4332 28.5777 62.5066 28.6848C64.4332 26.116 66.4668 23.7613 68.5004 21.5137C70.534 23.7613 72.5676 26.223 74.4941 28.6848ZM43.7762 7.9207C44.6324 7.38555 45.7027 7.17148 46.8801 7.17148C52.1246 7.17148 58.6535 11.4527 65.0754 17.8746C61.9715 21.1926 58.9746 24.9387 55.9777 29.1129C50.9473 29.541 46.1309 30.2902 41.6355 31.3605C41.1004 29.434 40.7793 27.5074 40.4582 25.5809C38.9598 16.4832 40.1371 10.0613 43.7762 7.9207ZM38.2105 64.3262C26.223 60.9012 19.052 55.6566 19.052 50.8402C19.052 46.666 23.9754 42.4918 32.6449 39.1738C34.3574 38.5316 36.284 37.8895 38.2105 37.3543C39.602 41.7426 41.3145 46.2379 43.4551 50.8402C41.3145 55.4426 39.4949 60.0449 38.2105 64.3262ZM40.4582 76.0996C40.7793 74.2801 41.2074 72.3535 41.6355 70.3199C46.1309 71.2832 50.9473 72.0324 55.9777 72.5676C58.8676 76.7418 61.9715 80.4879 65.0754 83.8059C58.6535 90.1207 52.1246 94.509 46.8801 94.509C45.7027 94.509 44.7395 94.2949 43.7762 93.7598C40.1371 91.7262 38.9598 85.1973 40.4582 76.0996ZM35.9629 120.196C38.3176 117.307 38.4246 114.096 37.1402 110.885C35.8559 107.674 33.1801 106.175 29.8621 106.068C25.902 105.961 21.8348 106.068 17.8746 106.068H17.1254V133.789H20.3363V123.3H25.3668C26.009 123.3 26.5441 123.514 26.8652 124.05L33.2871 134.004C33.3941 134.218 33.7152 134.539 33.9293 134.539H38.1035C35.5348 130.579 33.073 126.832 30.5043 122.979C32.752 122.658 34.6785 121.909 35.9629 120.196ZM20.3363 119.982V109.386H21.5137C23.9754 109.386 26.5441 109.279 29.0059 109.493C31.8957 109.6 33.9293 111.848 33.9293 114.738C33.9293 117.628 31.5746 119.875 28.6848 119.982C26.116 120.089 23.5473 119.982 20.3363 119.982ZM61.7574 121.374C60.0449 113.882 53.1949 111.955 47.9504 114.31C43.8832 116.129 42.0637 119.661 41.9566 124.05C41.8496 127.368 42.8129 130.364 45.3816 132.612C48.2715 135.181 51.8035 135.502 55.4426 134.86C57.4762 134.432 59.2957 133.468 60.6871 131.97C60.152 131.221 59.6168 130.471 59.0816 129.829C56.0848 132.398 52.7668 133.254 49.1277 131.542C46.773 130.364 45.5957 127.475 45.3816 125.334H61.9715V123.943C62.0785 122.979 61.9715 122.123 61.7574 121.374ZM45.5957 123.086C45.2746 119.875 48.4855 116.45 52.0176 116.45C56.0848 116.343 58.6535 118.805 58.7606 123.086H45.5957ZM78.4543 113.775C76.8488 113.454 75.1363 113.346 73.5309 113.454C70.9621 113.668 68.7145 114.845 66.8949 116.771C67.4301 117.521 67.8582 118.27 68.5004 119.126C68.7145 118.912 68.9285 118.698 69.1426 118.591C70.8551 116.986 72.8887 116.129 75.3504 116.343C77.277 116.45 79.0965 117.093 79.6316 119.019C80.0598 120.518 79.9527 122.123 80.0598 123.729C79.7387 123.729 79.6316 123.621 79.5246 123.514C76.9559 121.374 74.066 120.946 70.9621 121.695C68.0723 122.444 66.2527 124.692 66.0387 127.582C65.8246 130.9 67.323 133.361 70.2129 134.539C72.0324 135.288 74.066 135.288 75.9926 134.86C77.491 134.539 78.1332 133.682 80.2738 132.505V133.896H83.2707C83.2707 129.615 83.3777 124.371 83.2707 119.447C83.2707 116.343 81.4512 114.417 78.4543 113.775ZM79.9527 127.261C79.8457 127.582 79.9527 127.903 79.9527 128.224C79.9527 130.471 79.4176 131.221 77.277 132.077C75.7785 132.612 74.173 132.826 72.5676 132.291C70.7481 131.756 69.4637 130.15 69.4637 128.331C69.3566 126.511 70.534 124.692 72.3535 124.157C74.8152 123.3 77.0629 123.836 79.0965 125.334C79.7387 125.869 80.1668 126.404 79.9527 127.261ZM96.6496 116.664C99.4324 115.808 102.001 116.343 103.928 118.698L104.249 118.912C104.998 118.27 105.64 117.628 106.496 116.879C106.175 116.557 106.068 116.343 105.854 116.022C102.75 112.704 96.6496 112.276 92.9035 114.952C87.659 118.805 87.766 126.297 90.3348 130.257C92.7965 134.004 96.3285 135.288 100.503 134.753C102.964 134.432 104.998 133.254 106.604 131.221C105.854 130.579 105.105 129.936 104.356 129.187C104.142 129.401 104.035 129.508 103.928 129.722C101.038 132.933 96.2215 132.612 93.6527 129.187C92.1543 127.154 91.8332 124.799 92.2613 122.444C92.4754 119.768 93.8668 117.628 96.6496 116.664ZM118.912 131.221C118.698 131.328 118.591 131.435 118.591 131.435C117.735 132.077 116.879 132.184 115.915 131.863C114.952 131.435 114.845 130.579 114.738 129.722V117.521C114.738 117.307 114.738 117.735 114.845 116.664H118.912V113.454H114.631V108.102H111.42V113.882H108.637C108.423 113.882 108.102 114.096 108.102 114.31C107.995 115.059 108.102 115.594 108.102 116.664H111.527V130.364C111.527 132.077 111.955 133.575 113.454 134.432C115.059 135.395 118.163 135.181 119.554 134.004C119.768 133.896 119.875 133.468 119.875 133.361C119.554 132.719 119.233 131.97 118.912 131.221Z" fill="#61DAFB"/>
</svg>
