<svg width="113" height="114" viewBox="0 0 113 114" fill="none" xmlns="http://www.w3.org/2000/svg">
<path d="M57 0C31.6 0 11 21.3774 11 47.7358C11 74.0943 31.6 95.4717 57 95.4717C82.4 95.4717 103 74.0943 103 47.7358C103 21.3774 82.4 0 57 0ZM60.7 86.9623C60.5 86.9623 60.3 86.9623 60 87.066V64.5472C65.2 64.4434 69.9 64.3396 74.2 64.0283C70.4 76.1698 63.3 84.2642 60.7 86.9623ZM53.3 86.9623C50.6 84.1604 43.6 76.066 39.8 64.0283C44 64.3396 48.8 64.5472 54 64.5472V87.066C53.8 87.066 53.6 86.9623 53.3 86.9623ZM19 47.7358C19 45.1415 19.3 42.5472 19.7 40.0566C21.9 39.6415 26.1 39.0189 32 38.3962C31.5 41.4057 31.2 44.5189 31.2 47.8396C31.2 51.1604 31.5 54.2736 31.9 57.1792C26.1 56.5566 21.8 55.934 19.6 55.5189C19.3 52.9245 19 50.3302 19 47.7358ZM37.3 47.7358C37.3 44.2075 37.7 40.8868 38.3 37.7736C42.9 37.4623 48.1 37.1509 54 37.1509V58.3208C48.2 58.217 42.9 58.0094 38.2 57.5943C37.7 54.5849 37.3 51.2641 37.3 47.7358ZM60.6 8.50943C63.3 11.3113 70.2 19.6132 74.1 31.4434C69.9 31.1321 65.2 30.9245 60 30.9245V8.40566C60.2 8.40566 60.4 8.50943 60.6 8.50943ZM54 8.40566V30.9245C48.8 31.0283 44.1 31.1321 39.9 31.4434C43.7 19.6132 50.7 11.3113 53.3 8.50943C53.6 8.50943 53.8 8.40566 54 8.40566ZM60 58.3208V37.1509C65.8 37.2547 71.1 37.4623 75.7 37.7736C76.3 40.8868 76.7 44.2075 76.7 47.7358C76.7 51.2641 76.4 54.5849 75.8 57.6981C71.2 58.0094 65.9 58.217 60 58.3208ZM81.9 38.3962C87.8 39.0189 92 39.6415 94.2 40.0566C94.7 42.5472 95 45.1415 95 47.7358C95 50.3302 94.7 52.9245 94.3 55.4151C92.1 55.8302 87.9 56.4528 82 57.0755C82.5 54.066 82.7 50.9528 82.7 47.6321C82.7 44.5189 82.4 41.3019 81.9 38.3962ZM92.4 33.4151C89.6 33 85.6 32.4811 80.5 31.9623C78.1 23.0377 73.9 15.8774 70.4 10.7925C80.5 14.7358 88.5 23.0377 92.4 33.4151ZM43.6 10.7925C40 15.7736 35.9 22.934 33.5 31.8585C28.5 32.2736 24.5 32.8962 21.6 33.3113C25.5 23.0377 33.6 14.7358 43.6 10.7925ZM21.6 62.0566C24.4 62.4717 28.4 62.9906 33.4 63.5094C35.8 72.434 39.8 79.5943 43.4 84.5755C33.4 80.5283 25.5 72.3302 21.6 62.0566ZM70.6 84.5755C74.2 79.5943 78.2 72.5377 80.6 63.6132C85.6 63.1981 89.6 62.5755 92.4 62.1604C88.5 72.3302 80.6 80.5283 70.6 84.5755Z" fill="black"/>
<path d="M4 110L109 110" stroke="#369B8B" stroke-width="7" stroke-linecap="round"/>
</svg>
