<svg width="25" height="25" viewBox="0 0 25 25" fill="none" xmlns="http://www.w3.org/2000/svg">
<g clip-path="url(#clip0_113_116)">
<path fill-rule="evenodd" clip-rule="evenodd" d="M12.1875 8.125C9.94384 8.125 8.125 9.94384 8.125 12.1875C8.125 14.4311 9.94384 16.25 12.1875 16.25C14.4311 16.25 16.25 14.4311 16.25 12.1875C16.25 9.94384 14.4311 8.125 12.1875 8.125ZM6.25 12.1875C6.25 8.90831 8.90831 6.25 12.1875 6.25C15.4668 6.25 18.125 8.90831 18.125 12.1875C18.125 15.4668 15.4668 18.125 12.1875 18.125C8.90831 18.125 6.25 15.4668 6.25 12.1875Z" fill="#1F1F1F"/>
<path fill-rule="evenodd" clip-rule="evenodd" d="M12.1875 0C12.7052 0 13.125 0.419733 13.125 0.9375V2.1875C13.125 2.70526 12.7052 3.125 12.1875 3.125C11.6697 3.125 11.25 2.70526 11.25 2.1875V0.9375C11.25 0.419733 11.6697 0 12.1875 0ZM3.56959 3.56959C3.9357 3.20347 4.5293 3.20347 4.89541 3.56959L5.77916 4.45334C6.14528 4.81945 6.14528 5.41305 5.77916 5.77916C5.41305 6.14528 4.81945 6.14528 4.45334 5.77916L3.56959 4.89541C3.20347 4.5293 3.20347 3.9357 3.56959 3.56959ZM20.8054 3.56959C21.1715 3.9357 21.1715 4.5293 20.8054 4.89541L19.9216 5.77916C19.5555 6.14528 18.962 6.14528 18.5959 5.77916C18.2297 5.41305 18.2297 4.81945 18.5959 4.45334L19.4796 3.56959C19.8458 3.20347 20.4393 3.20347 20.8054 3.56959ZM0 12.1875C0 11.6697 0.419733 11.25 0.9375 11.25H2.1875C2.70526 11.25 3.125 11.6697 3.125 12.1875C3.125 12.7052 2.70526 13.125 2.1875 13.125H0.9375C0.419733 13.125 0 12.7052 0 12.1875ZM21.25 12.1875C21.25 11.6697 21.6698 11.25 22.1875 11.25H23.4375C23.9552 11.25 24.375 11.6697 24.375 12.1875C24.375 12.7052 23.9552 13.125 23.4375 13.125H22.1875C21.6698 13.125 21.25 12.7052 21.25 12.1875ZM5.77916 18.5959C6.14528 18.962 6.14528 19.5555 5.77916 19.9216L4.89541 20.8054C4.5293 21.1715 3.9357 21.1715 3.56959 20.8054C3.20347 20.4393 3.20347 19.8458 3.56959 19.4796L4.45334 18.5959C4.81945 18.2297 5.41305 18.2297 5.77916 18.5959ZM18.5959 18.5959C18.962 18.2297 19.5555 18.2297 19.9216 18.5959L20.8054 19.4796C21.1715 19.8458 21.1715 20.4393 20.8054 20.8054C20.4393 21.1715 19.8458 21.1715 19.4796 20.8054L18.5959 19.9216C18.2297 19.5555 18.2297 18.962 18.5959 18.5959ZM12.1875 21.25C12.7052 21.25 13.125 21.6698 13.125 22.1875V23.4375C13.125 23.9552 12.7052 24.375 12.1875 24.375C11.6697 24.375 11.25 23.9552 11.25 23.4375V22.1875C11.25 21.6698 11.6697 21.25 12.1875 21.25Z" fill="#1F1F1F"/>
</g>
<defs>
<clipPath id="clip0_113_116">
<rect width="25" height="25" fill="white"/>
</clipPath>
</defs>
</svg>
